<?xml version="1.0" standalone="no"?>
<!DOCTYPE svg PUBLIC "-//W3C//DTD SVG 20010904//EN"
 "http://www.w3.org/TR/2001/REC-SVG-20010904/DTD/svg10.dtd">
<svg version="1.0" xmlns="http://www.w3.org/2000/svg"
 width="75.000000pt" height="75.000000pt" viewBox="0 0 400 400.000000"
 preserveAspectRatio="xMidYMid meet">

<g transform="translate(0.000000,400.000000) scale(0.100000,-0.100000)"
fill="#000000" stroke="none">
<path d="M556 3968 c-3 -7 -14 -107 -26 -223 -19 -185 -108 -999 -171 -1555
-22 -189 -24 -197 -61 -265 -28 -51 -37 -62 -33 -40 18 110 127 1084 175 1555
11 107 27 251 35 320 8 69 16 144 17 168 l4 42 -43 0 c-50 0 -41 40 -83 -355
-17 -159 -35 -315 -40 -345 -5 -30 -11 -86 -15 -125 -3 -38 -19 -180 -37 -315
-17 -135 -33 -271 -35 -302 -5 -55 -14 -71 -28 -48 -4 6 -11 8 -16 4 -7 -4 -5
-12 4 -22 23 -27 25 -45 10 -74 -8 -17 -9 -28 -3 -28 5 0 10 -17 10 -37 1 -36
2 -37 15 -18 17 22 17 23 -14 -203 -10 -68 -14 -125 -9 -128 12 -8 10 -46 -5
-63 -8 -9 -27 -116 -46 -256 -40 -302 -43 -327 -44 -342 0 -7 -22 -18 -49 -24
l-48 -13 1 -90 c1 -50 4 -81 6 -69 9 47 18 21 15 -42 -2 -36 -8 -65 -13 -65
-5 0 -9 -12 -9 -26 0 -19 4 -25 15 -20 11 4 15 -2 15 -27 0 -18 -4 -37 -9 -43
-11 -11 -15 -119 -13 -337 2 -132 5 -167 14 -161 9 5 8 2 -1 -9 -11 -14 -12
-38 -7 -115 4 -53 7 -136 6 -185 -1 -70 2 -87 13 -87 11 0 17 20 22 80 4 44
10 80 14 80 3 0 15 -16 25 -35 14 -25 17 -47 14 -80 l-6 -45 883 0 c485 0 950
3 1033 7 l152 6 1 136 c1 119 13 288 18 238 1 -15 5 -16 21 -7 17 9 20 21 20
90 0 43 -4 80 -10 82 -5 2 -1 61 12 148 16 107 22 200 23 357 1 133 5 216 12
225 37 46 65 125 69 197 3 42 6 99 8 126 6 83 -12 232 -32 272 -77 154 -144
242 -239 316 -32 25 -68 55 -80 66 l-23 22 0 -22 c0 -18 -2 -19 -15 -9 -22 18
-19 -4 6 -60 11 -24 22 -65 25 -89 5 -50 -4 -50 -16 1 -7 29 -29 96 -62 190
-14 39 -39 46 -31 8 7 -35 -4 -83 -17 -75 -6 3 -5 16 1 32 5 14 7 28 5 31 -5
4 -18 -21 -30 -60 -3 -11 -15 -18 -28 -17 -26 1 -100 27 -80 28 6 1 12 8 12
16 0 9 8 19 18 22 23 9 32 23 32 54 0 31 69 99 100 99 17 0 18 3 8 25 -9 19
-7 39 7 90 9 36 15 74 12 84 -3 13 2 21 17 26 13 4 16 8 9 12 -7 2 -13 9 -13
14 0 14 42 11 74 -6 36 -19 33 -20 38 15 4 27 2 29 -19 24 -16 -4 -34 2 -58
20 -33 25 -34 28 -29 84 2 31 4 113 4 181 -1 98 1 122 12 118 8 -2 12 -17 10
-36 -5 -61 45 -121 101 -121 30 0 48 27 27 40 -17 11 21 23 44 14 11 -4 16 -1
16 10 0 9 -5 15 -12 14 -7 -2 -12 3 -13 10 0 7 -6 17 -14 21 -22 14 -3 31 28
25 42 -9 50 14 17 43 -15 12 -34 23 -43 23 -9 0 -33 5 -53 11 l-38 11 14 61
c35 149 95 167 134 41 11 -36 20 -81 20 -99 0 -48 18 -53 35 -11 13 30 17 46
24 86 1 3 6 -2 12 -10 8 -11 9 -5 4 25 -9 53 -43 118 -57 109 -6 -4 -4 3 5 17
25 35 23 53 -4 38 -21 -11 -22 -10 -17 29 4 25 1 51 -8 67 -7 14 -11 32 -8 40
7 18 -48 75 -71 75 -9 0 -13 -4 -10 -10 9 -14 -8 -13 -23 2 -7 7 -12 9 -12 4
0 -4 -12 2 -26 13 -14 11 -32 17 -40 14 -8 -3 -25 2 -39 11 -19 12 -51 16
-145 16 l-122 0 -29 -30 c-17 -16 -27 -35 -23 -41 3 -6 2 -14 -3 -18 -5 -3
-19 -19 -31 -35 -12 -16 -22 -26 -22 -22 0 3 -9 -2 -19 -11 -11 -9 -17 -21
-14 -26 4 -6 -3 -8 -15 -5 -12 4 -20 3 -17 -2 2 -4 -9 -18 -26 -31 -33 -25
-65 -76 -60 -97 1 -8 -3 -20 -10 -28 -13 -15 -8 -211 6 -246 5 -14 2 -18 -12
-18 -40 0 -55 -33 -54 -117 1 -89 18 -131 64 -158 29 -17 29 -19 23 -74 -11
-94 -28 -133 -75 -179 -38 -36 -50 -42 -74 -36 -17 3 -36 0 -50 -9 -13 -8 -30
-11 -42 -7 -10 4 -31 1 -45 -7 -14 -7 -31 -13 -37 -13 -7 0 -13 -6 -13 -14 0
-8 -7 -17 -16 -20 -9 -4 -13 -2 -8 5 4 8 1 8 -12 1 -11 -5 -41 -13 -68 -17
-35 -5 -45 -9 -35 -16 9 -6 0 -9 -31 -10 -25 0 -61 -7 -80 -15 -34 -13 -32
-14 40 -9 47 3 68 2 55 -4 -11 -5 -24 -6 -28 -4 -4 3 -13 0 -20 -5 -7 -6 -29
-7 -55 -2 -42 7 -48 -3 -7 -12 11 -3 -1 -5 -26 -6 -25 0 -63 -7 -84 -16 -35
-15 -147 -90 -177 -119 -21 -20 -84 -67 -91 -67 -4 0 -4 6 -2 13 7 20 54 417
70 592 8 88 21 211 30 274 14 109 21 168 49 466 14 145 8 213 -12 135 -6 -25
-16 -85 -22 -134 -6 -49 -13 -94 -17 -98 -3 -5 -5 -25 -5 -44 0 -19 -4 -31
-10 -28 -9 6 -2 131 9 164 2 8 6 44 8 80 2 36 11 134 20 219 9 84 14 160 11
167 -7 17 -55 18 -60 2z m1611 -373 c5 -4 2 -4 -6 0 -11 6 -13 4 -8 -8 8 -22
4 -21 -16 1 -16 18 -16 19 3 17 11 -1 23 -5 27 -10z m-611 -577 c-4 -18 -7
-45 -7 -60 0 -35 -15 -37 -21 -3 -3 14 -1 25 3 25 5 0 9 16 9 35 0 19 5 35 11
35 7 0 9 -11 5 -32z m345 -1121 c21 -49 21 -68 1 -45 -17 21 -42 101 -35 112
4 6 8 4 11 -4 2 -8 13 -37 23 -63z m309 -222 c0 -17 4 -23 14 -19 28 11 11
-30 -27 -64 -36 -33 -39 -34 -55 -18 -12 11 -16 31 -15 63 2 50 13 63 56 63
22 0 27 -4 27 -25z m42 -130 c2 -19 0 -35 -4 -35 -4 0 -8 16 -8 35 0 19 2 35
4 35 2 0 6 -16 8 -35z m-2172 -1119 c0 -3 -4 -8 -10 -11 -5 -3 -10 -1 -10 4 0
6 5 11 10 11 6 0 10 -2 10 -4z m1717 -58 c-3 -7 -5 -2 -5 12 0 14 2 19 5 13 2
-7 2 -19 0 -25z m296 -205 c4 -46 3 -83 -2 -83 -5 0 -11 42 -15 92 -3 51 -8
125 -10 163 l-5 70 13 -80 c7 -44 16 -117 19 -162z m-273 57 c0 -11 -2 -20 -4
-20 -2 0 -6 9 -9 20 -3 11 -1 20 4 20 5 0 9 -9 9 -20z m20 -144 c5 -24 5 -35
-1 -29 -5 5 -11 34 -14 64 -2 30 -2 43 1 29 3 -14 9 -42 14 -64z m280 -43 c0
-7 -4 -13 -9 -13 -5 0 -8 12 -8 26 0 18 2 22 8 13 5 -8 9 -20 9 -26z"/>
<path d="M2165 1620 c-13 -6 -15 -9 -5 -9 8 0 22 4 30 9 18 12 2 12 -25 0z"/>
<path d="M631 3734 c0 -11 3 -14 6 -6 3 7 2 16 -1 19 -3 4 -6 -2 -5 -13z"/>
<path d="M2221 2898 c1 -45 2 -49 9 -23 11 44 11 75 0 75 -6 0 -9 -23 -9 -52z"/>
<path d="M1978 2869 c-24 -13 -23 -25 2 -32 16 -4 20 0 20 19 0 27 1 27 -22
13z"/>
<path d="M2040 2846 c0 -21 21 -31 31 -15 14 22 11 29 -11 29 -11 0 -20 -6
-20 -14z"/>
<path d="M3971 2454 c0 -11 3 -14 6 -6 3 7 2 16 -1 19 -3 4 -6 -2 -5 -13z"/>
<path d="M3273 2364 c-18 -19 -17 -105 1 -98 7 3 21 -2 30 -12 18 -18 17 -50
-1 -47 -6 1 -14 -4 -17 -12 -6 -16 19 -45 37 -44 9 0 8 2 0 6 -7 2 -13 11 -13
19 0 17 5 17 30 4 13 -7 19 -6 23 3 9 23 -2 142 -13 145 -7 3 -5 11 5 22 15
16 14 17 -9 13 -13 -3 -32 0 -42 5 -14 7 -23 6 -31 -4z"/>
<path d="M135 2235 c-3 -28 -8 -59 -10 -70 -3 -14 6 -8 30 19 26 32 31 42 20
50 -7 6 -17 20 -23 31 -9 16 -11 11 -17 -30z"/>
<path d="M3843 1814 c-3 -8 -1 -20 6 -27 8 -8 11 -8 11 0 0 6 3 18 6 27 3 9 1
16 -5 16 -7 0 -14 -7 -18 -16z"/>
<path d="M3900 1810 l25 -20 -24 0 c-21 0 -22 -2 -10 -17 13 -15 12 -16 -8
-11 -16 4 -23 2 -23 -8 0 -9 11 -12 38 -10 42 4 62 -2 62 -16 0 -6 -7 -7 -16
-4 -13 5 -44 -14 -44 -27 0 -10 55 -2 68 10 21 21 14 59 -15 79 -16 10 -34 24
-41 31 -7 7 -19 13 -25 13 -7 0 -1 -9 13 -20z m46 -47 c-7 -7 -26 7 -26 19 0
6 6 6 15 -2 9 -7 13 -15 11 -17z"/>
<path d="M3472 1580 c0 -14 2 -19 5 -12 2 6 2 18 0 25 -3 6 -5 1 -5 -13z"/>
<path d="M3447 1497 c-3 -8 -1 -20 4 -28 8 -12 10 -12 18 0 10 15 4 41 -9 41
-4 0 -10 -6 -13 -13z"/>
<path d="M2946 785 c-3 -8 -1 -15 4 -15 6 0 10 7 10 15 0 8 -2 15 -4 15 -2 0
-6 -7 -10 -15z"/>
</g>
</svg>
