<?xml version="1.0" standalone="no"?>
<!DOCTYPE svg PUBLIC "-//W3C//DTD SVG 20010904//EN"
 "http://www.w3.org/TR/2001/REC-SVG-20010904/DTD/svg10.dtd">
<svg version="1.0" xmlns="http://www.w3.org/2000/svg"
 width="125.000000pt" height="40.000000pt" viewBox="0 0 423.000000 187.000000"
 preserveAspectRatio="xMidYMid meet">

<g transform="translate(0.000000,187.000000) scale(0.100000,-0.100000)"
fill="#FFFFFF" stroke="none">
<path d="M470 1840 c-25 -4 -57 -5 -72 -3 -37 7 -39 -22 -3 -31 15 -4 30 -18
35 -32 6 -14 10 -152 10 -312 0 -244 -2 -291 -16 -310 -8 -12 -24 -22 -35 -22
-10 0 -19 -7 -19 -15 0 -12 19 -15 110 -15 91 0 110 3 110 15 0 8 -9 15 -20
15 -33 0 -40 33 -40 177 0 114 4 145 20 180 42 93 155 112 175 30 3 -12 4
-101 3 -197 l-3 -175 -27 -13 c-16 -7 -28 -17 -28 -23 0 -13 220 -7 221 6 0 6
-10 12 -23 15 -41 10 -48 43 -48 223 0 141 -3 174 -17 198 -44 74 -191 70
-252 -7 l-21 -27 0 167 c0 91 -3 165 -7 165 -5 -1 -28 -5 -53 -9z"/>
<path d="M4053 1843 c-56 -3 -73 -7 -73 -18 0 -8 9 -15 19 -15 38 0 51 -37 51
-142 0 -54 -2 -98 -5 -98 -3 0 -17 8 -32 17 -36 24 -117 21 -170 -5 -93 -48
-136 -164 -113 -307 20 -129 89 -191 202 -183 47 3 64 10 88 33 l30 29 0 -33
c0 -30 2 -33 23 -27 12 3 48 6 80 6 44 0 57 3 57 15 0 8 -9 15 -19 15 -11 0
-27 10 -35 22 -14 19 -16 71 -16 360 0 186 -3 337 -7 336 -5 -1 -41 -4 -80 -5z
m-53 -278 c16 -8 34 -24 40 -34 5 -11 10 -85 10 -168 0 -162 -9 -192 -66 -229
-24 -16 -30 -16 -67 -3 -58 20 -87 74 -94 177 -8 113 10 188 57 234 42 42 72
48 120 23z"/>
<path d="M143 1743 l-33 -4 0 -75 0 -74 -45 0 c-25 0 -45 -4 -45 -10 0 -5 20
-10 44 -10 l44 0 4 -197 c3 -216 11 -247 63 -271 44 -20 110 -15 140 10 25 23
58 96 48 110 -9 16 -21 7 -32 -24 -16 -45 -40 -68 -71 -68 -51 0 -55 16 -58
237 l-3 203 70 0 c41 0 71 4 71 10 0 6 -30 10 -70 10 l-70 0 0 80 c0 58 -3 80
-12 78 -7 0 -28 -3 -45 -5z"/>
<path d="M1135 1605 c-5 -2 -22 -6 -37 -9 -42 -9 -93 -60 -117 -115 -62 -145
-21 -315 90 -372 62 -31 162 -24 213 14 41 32 73 84 59 98 -6 6 -22 -7 -41
-30 -21 -26 -46 -45 -71 -52 -35 -10 -45 -9 -86 11 -60 29 -95 95 -95 183 l0
57 150 0 c168 0 157 -6 139 79 -12 56 -38 95 -78 115 -27 14 -108 28 -126 21z
m74 -44 c21 -21 41 -80 41 -118 0 -22 -3 -23 -101 -23 l-101 0 7 33 c23 105
102 160 154 108z"/>
<path d="M1756 1596 c-50 -19 -66 -35 -76 -80 -17 -76 11 -118 142 -210 37
-26 72 -55 78 -66 25 -47 0 -109 -50 -125 -25 -8 -83 10 -103 33 -14 16 -28
56 -41 115 -4 15 -13 27 -21 27 -12 0 -15 -18 -15 -100 0 -78 3 -100 14 -100
7 0 16 9 19 19 5 20 5 20 43 0 48 -24 133 -25 181 -2 72 34 95 126 49 194 -13
19 -63 61 -110 93 -95 63 -121 93 -112 130 9 38 34 56 76 56 48 0 93 -40 111
-98 7 -23 18 -42 26 -42 10 0 13 21 13 85 0 55 -4 85 -11 85 -6 0 -13 -9 -16
-20 -6 -24 -15 -25 -52 -5 -44 22 -101 27 -145 11z"/>
<path d="M2255 1599 c-59 -14 -101 -48 -132 -104 -24 -44 -27 -61 -28 -140 0
-100 13 -149 53 -197 82 -98 261 -89 334 17 69 99 56 298 -23 375 -47 45 -134
66 -204 49z m115 -46 c89 -82 75 -379 -20 -428 -85 -44 -149 31 -158 185 -6
117 11 195 53 237 42 42 83 44 125 6z"/>
<path d="M3425 1601 c-44 -11 -71 -27 -94 -57 l-21 -27 0 43 0 43 -37 -7 c-21
-3 -59 -6 -85 -6 -56 0 -61 -11 -16 -31 19 -8 35 -24 39 -39 4 -14 7 -95 8
-180 1 -168 -7 -200 -48 -210 -14 -3 -26 -11 -29 -18 -3 -9 25 -12 112 -12 96
0 116 3 116 15 0 8 -8 15 -18 15 -37 0 -42 19 -42 173 0 160 8 192 55 237 12
12 41 24 62 27 35 5 43 2 61 -22 21 -26 22 -39 22 -202 0 -181 -6 -213 -40
-213 -11 0 -20 -7 -20 -15 0 -12 19 -15 110 -15 91 0 110 3 110 15 0 8 -9 15
-19 15 -43 0 -51 33 -51 215 0 115 -4 178 -13 194 -26 51 -97 78 -162 62z"/>
<path d="M2643 1593 c-68 -4 -80 -15 -33 -31 37 -13 38 -20 43 -222 4 -219 21
-250 133 -250 54 0 92 18 128 60 l26 32 0 -47 c0 -44 2 -47 23 -41 12 3 48 6
80 6 44 0 57 3 57 15 0 8 -9 15 -19 15 -45 0 -51 30 -51 257 l0 213 -77 -7
c-79 -6 -99 -12 -74 -21 8 -3 26 -16 39 -29 23 -23 23 -27 20 -166 -2 -115 -7
-149 -22 -180 -23 -47 -54 -69 -102 -70 -62 -2 -64 8 -64 255 l0 218 -22 -2
c-13 -1 -51 -3 -85 -5z"/>
<path d="M1479 775 c-4 -3 -37 -7 -74 -8 -44 -1 -70 -6 -73 -14 -2 -8 5 -13
17 -13 11 0 27 -10 35 -22 14 -19 16 -71 16 -360 0 -264 3 -338 13 -338 6 1
25 11 41 24 l28 24 36 -24 c65 -44 167 -29 234 34 62 58 86 207 52 322 -40
134 -178 178 -279 89 l-34 -31 -3 162 c-2 89 -6 159 -9 155z m193 -302 c35
-38 48 -90 48 -198 0 -109 -13 -159 -50 -197 -22 -22 -38 -28 -70 -28 -46 0
-94 21 -104 45 -9 25 -7 255 4 300 12 54 68 105 113 105 23 0 41 -8 59 -27z"/>
<path d="M1950 740 c-11 -11 -20 -29 -20 -40 0 -24 42 -70 63 -70 26 0 67 41
67 66 0 31 -33 64 -65 64 -14 0 -34 -9 -45 -20z"/>
<path d="M200 531 c-39 -8 -76 -26 -102 -49 -21 -18 -24 -82 -6 -100 18 -18
63 -14 81 6 23 25 21 51 -4 79 l-22 22 27 11 c48 18 95 12 121 -15 21 -20 25
-34 25 -79 0 -69 -14 -84 -108 -114 -93 -30 -134 -59 -150 -106 -14 -45 -3
-103 27 -130 48 -44 156 -39 202 10 l22 24 18 -30 c24 -38 73 -48 123 -25 20
10 36 24 36 31 0 17 -5 17 -31 3 -43 -23 -49 -1 -49 188 0 193 -9 232 -59 257
-34 18 -107 26 -151 17z m86 -428 c-66 -60 -139 -36 -139 46 0 53 21 79 100
120 l68 36 3 -85 3 -85 -35 -32z"/>
<path d="M775 525 c-22 -8 -52 -28 -67 -45 l-28 -30 0 41 0 42 -37 -7 c-21 -3
-59 -6 -85 -6 -56 0 -61 -11 -16 -31 19 -8 35 -24 39 -39 4 -14 7 -95 8 -180
1 -168 -7 -200 -48 -210 -14 -3 -26 -11 -29 -18 -3 -9 25 -12 112 -12 96 0
116 3 116 15 0 8 -8 15 -18 15 -37 0 -42 19 -42 172 0 166 8 198 59 241 36 30
77 35 107 13 17 -13 19 -30 22 -200 3 -194 -2 -226 -38 -226 -11 0 -20 -7 -20
-15 0 -12 19 -15 110 -15 91 0 110 3 110 15 0 8 -9 15 -20 15 -11 0 -27 11
-36 25 -24 37 -16 283 11 339 33 68 112 97 151 55 16 -18 19 -41 22 -187 4
-182 -2 -217 -43 -232 -50 -19 -14 -30 96 -30 84 0 110 3 107 13 -3 6 -13 14
-24 15 -10 2 -23 8 -29 13 -6 6 -12 93 -15 199 -5 171 -7 191 -26 217 -51 69
-192 62 -240 -12 -20 -31 -30 -32 -38 -1 -13 51 -100 77 -171 51z"/>
<path d="M2365 535 c-5 -2 -22 -6 -37 -9 -42 -9 -93 -60 -117 -115 -62 -145
-21 -315 90 -372 62 -31 162 -24 213 14 41 32 73 84 59 98 -6 6 -22 -7 -41
-30 -21 -26 -46 -45 -71 -52 -35 -10 -45 -9 -86 11 -60 29 -95 95 -95 183 l0
57 150 0 c168 0 157 -6 139 79 -12 56 -38 95 -78 115 -27 14 -108 28 -126 21z
m74 -44 c21 -21 41 -80 41 -118 0 -22 -3 -23 -101 -23 l-101 0 7 33 c23 105
102 160 154 108z"/>
<path d="M2925 531 c-44 -11 -71 -27 -94 -57 l-21 -27 0 43 0 43 -37 -7 c-21
-3 -59 -6 -85 -6 -56 0 -61 -11 -16 -31 19 -8 35 -24 39 -39 4 -14 7 -95 8
-180 1 -168 -7 -200 -48 -210 -14 -3 -26 -11 -29 -18 -3 -9 25 -12 112 -12 96
0 116 3 116 15 0 8 -8 15 -18 15 -37 0 -42 19 -42 173 0 160 8 192 55 237 12
12 41 24 62 27 35 5 43 2 61 -22 21 -26 22 -39 22 -202 0 -181 -6 -213 -40
-213 -11 0 -20 -7 -20 -15 0 -12 19 -15 110 -15 91 0 110 3 110 15 0 8 -9 15
-19 15 -43 0 -51 33 -51 215 0 115 -4 178 -13 194 -26 51 -97 78 -162 62z"/>
<path d="M3378 526 c-116 -42 -179 -182 -149 -328 23 -109 101 -178 202 -178
83 0 152 47 174 118 10 33 -17 28 -37 -7 -33 -59 -125 -82 -175 -44 -56 41
-68 77 -68 198 0 121 18 175 69 208 30 20 85 22 110 4 18 -13 18 -15 1 -41
-33 -49 13 -99 67 -72 47 23 30 99 -30 130 -42 21 -122 28 -164 12z"/>
<path d="M3865 535 c-5 -2 -22 -6 -37 -9 -42 -9 -93 -60 -117 -115 -62 -145
-21 -315 90 -372 62 -31 162 -24 213 14 41 32 73 84 59 98 -6 6 -22 -7 -41
-30 -21 -26 -46 -45 -71 -52 -35 -10 -45 -9 -86 11 -60 29 -95 95 -95 183 l0
57 150 0 c168 0 157 -6 139 79 -12 56 -38 95 -78 115 -27 14 -108 28 -126 21z
m74 -44 c21 -21 41 -80 41 -118 0 -22 -3 -23 -101 -23 l-101 0 7 33 c23 105
102 160 154 108z"/>
<path d="M1943 523 c-35 -2 -63 -7 -63 -12 0 -4 15 -14 32 -22 19 -8 35 -24
39 -39 4 -14 7 -95 8 -180 1 -168 -7 -200 -48 -210 -14 -3 -26 -11 -29 -18 -3
-9 27 -12 118 -12 93 0 121 3 118 13 -3 6 -13 14 -24 15 -41 7 -44 26 -44 254
l0 218 -22 -2 c-13 -1 -51 -3 -85 -5z"/>
</g>
</svg>
